<svg width="302" height="96" viewBox="0 0 302 96" fill="none" xmlns="http://www.w3.org/2000/svg">
<path d="M47.9816 1H254.018C280.003 1 301 22.063 301 47.9816C301 73.9659 279.937 94.9633 254.018 94.9633H47.9816C21.9974 94.9633 1 73.9003 1 47.9816C1 22.063 22.063 1 47.9816 1Z" fill="white"/>
<path d="M47.9814 1.91846H254.018C279.478 1.91846 300.081 22.5221 300.081 47.9814C300.081 73.4408 279.478 94.0444 254.018 94.0444H47.9814C22.5221 94.0444 1.91846 73.4408 1.91846 47.9814C1.91846 22.5221 22.5221 1.91846 47.9814 1.91846Z" stroke="#010202" stroke-opacity="0.25" stroke-width="2.7543"/>
<path d="M110.121 26.0657V36.7612H113.336C115.042 36.7612 116.354 36.2363 117.404 35.252C118.454 34.2678 118.914 32.9554 118.914 31.3806C118.914 29.8058 118.389 28.4935 117.404 27.5092C116.42 26.525 115.042 26.0657 113.336 26.0657H110.121ZM113.336 27.6405C114.517 27.6405 115.501 27.9686 116.158 28.6903C116.879 29.3465 117.207 30.2651 117.207 31.4462C117.207 32.5617 116.879 33.4804 116.158 34.2022C115.436 34.9239 114.517 35.252 113.336 35.252H111.761V27.6405H113.336Z" fill="#010202"/>
<path d="M124.36 28.6248C123.244 28.6248 122.26 29.0185 121.473 29.8059C120.685 30.5933 120.292 31.5775 120.292 32.7586C120.292 33.9397 120.685 34.924 121.473 35.7114C122.26 36.4988 123.179 36.8925 124.36 36.9581C125.475 36.9581 126.459 36.5644 127.247 35.777C128.034 34.9896 128.428 34.0053 128.428 32.8242C128.428 31.6431 128.034 30.6589 127.247 29.8715C126.394 29.0185 125.475 28.6248 124.36 28.6248ZM124.36 30.1996C125.016 30.1996 125.606 30.462 126.066 30.987C126.525 31.4463 126.722 32.1024 126.722 32.8242C126.722 33.546 126.459 34.2022 126.066 34.6615C125.606 35.1208 125.016 35.3833 124.36 35.3833C123.704 35.3833 123.113 35.1208 122.654 34.6615C122.194 34.1366 121.998 33.546 121.998 32.8242C121.998 32.1024 122.194 31.4463 122.654 30.987C123.113 30.462 123.704 30.1996 124.36 30.1996Z" fill="#010202"/>
<path d="M138.074 33.9397L135.711 28.6248H135.121L132.824 34.0053L130.79 28.8216H129.019L132.431 36.9581H133.021L135.449 31.6431L137.877 36.9581H138.467L141.814 28.8216H140.042L138.074 33.9397Z" fill="#010202"/>
<path d="M147.063 28.6248C146.144 28.6248 145.357 28.9528 144.767 29.609V28.8216H143.257V36.7612H144.898V32.0368C144.898 30.9213 145.62 30.1996 146.669 30.1996C147.654 30.1996 148.31 30.9213 148.31 32.0368V36.7612H149.95V31.7744C149.95 29.8715 148.835 28.6248 147.063 28.6248Z" fill="#010202"/>
<path d="M152.181 24.6221V36.7612H153.821V24.6221H152.181Z" fill="#010202"/>
<path d="M159.727 28.6248C158.612 28.6248 157.627 29.0185 156.84 29.8059C156.053 30.5933 155.659 31.5775 155.659 32.7586C155.659 33.9397 156.053 34.924 156.84 35.7114C157.627 36.4988 158.546 36.8925 159.727 36.9581C160.843 36.9581 161.827 36.5644 162.614 35.777C163.402 34.9896 163.795 34.0053 163.795 32.8242C163.795 31.6431 163.402 30.6589 162.614 29.8715C161.827 29.0185 160.843 28.6248 159.727 28.6248ZM159.793 30.1996C160.449 30.1996 161.04 30.462 161.499 30.987C161.958 31.4463 162.155 32.1024 162.155 32.8242C162.155 33.546 161.893 34.2022 161.499 34.6615C161.04 35.1208 160.449 35.3833 159.793 35.3833C159.137 35.3833 158.546 35.1208 158.087 34.6615C157.627 34.1366 157.431 33.546 157.431 32.8242C157.431 32.1024 157.627 31.4463 158.087 30.987C158.48 30.462 159.071 30.1996 159.793 30.1996Z" fill="#010202"/>
<path d="M168.651 28.6248C167.273 28.6248 166.223 29.2153 165.436 30.3308L166.354 31.315C167.011 30.5276 167.732 30.1339 168.454 30.1339C169.504 30.1339 170.095 30.7245 170.095 31.84V32.3649H167.929C166.223 32.3649 165.108 33.2836 165.108 34.6615C165.108 36.0395 166.158 36.9581 167.798 36.9581C168.848 36.9581 169.635 36.63 170.226 35.9082V36.8269H171.735V32.0368C171.735 29.8059 170.488 28.6248 168.651 28.6248ZM168.126 35.6458C167.339 35.6458 166.814 35.2521 166.814 34.5959C166.814 33.9397 167.273 33.6116 168.192 33.6116H170.16V33.7429C170.095 34.8584 169.242 35.6458 168.126 35.6458Z" fill="#010202"/>
<path d="M179.806 29.8057C179.215 29.0183 178.362 28.6246 177.247 28.6246C176.197 28.6246 175.278 29.0183 174.556 29.8057C173.835 30.5931 173.507 31.5774 173.507 32.7585C173.507 33.9396 173.835 34.9239 174.556 35.7113C175.278 36.4987 176.131 36.8924 177.247 36.8924C178.428 36.8924 179.346 36.433 179.937 35.58V36.6955H181.446V24.5564H179.806V29.8057ZM177.575 35.3832C176.919 35.3832 176.328 35.1207 175.869 34.6614C175.409 34.2021 175.213 33.5459 175.213 32.7585C175.213 31.9711 175.409 31.3805 175.869 30.9212C176.328 30.4619 176.853 30.1994 177.575 30.1994C178.165 30.1994 178.756 30.3963 179.215 30.8556C179.675 31.3149 179.871 31.9711 179.871 32.7585C179.871 34.5301 178.822 35.3832 177.575 35.3832Z" fill="#010202"/>
<path d="M191.748 28.6248C190.633 28.6248 189.648 29.0185 188.861 29.8059C188.074 30.5933 187.68 31.5775 187.68 32.7586C187.68 33.9397 188.074 34.924 188.861 35.7114C189.648 36.4988 190.567 36.8925 191.748 36.9581C192.864 36.9581 193.848 36.5644 194.635 35.777C195.423 34.9896 195.816 34.0053 195.816 32.8242C195.816 31.6431 195.423 30.6589 194.635 29.8715C193.782 29.0185 192.864 28.6248 191.748 28.6248ZM191.748 30.1996C192.404 30.1996 192.995 30.462 193.454 30.987C193.914 31.4463 194.11 32.1024 194.11 32.8242C194.11 33.546 193.848 34.2022 193.454 34.6615C192.995 35.1208 192.404 35.3833 191.748 35.3833C191.092 35.3833 190.501 35.1208 190.042 34.6615C189.583 34.1366 189.386 33.546 189.386 32.8242C189.386 32.1024 189.583 31.4463 190.042 30.987C190.501 30.462 191.092 30.1996 191.748 30.1996Z" fill="#010202"/>
<path d="M201.459 28.6248C200.541 28.6248 199.753 28.9528 199.163 29.609V28.8216H197.654V36.7612H199.294V32.0368C199.294 30.9213 200.016 30.1996 201.066 30.1996C202.05 30.1996 202.706 30.9213 202.706 32.0368V36.7612H204.346V31.7744C204.346 29.8715 203.297 28.6248 201.459 28.6248Z" fill="#010202"/>
<path d="M214.517 35.3831C213.533 35.3831 213.008 35.055 213.008 34.0051V30.265H215.305V28.8214H213.008V26.7217H211.368V28.8214H210.121V30.265H211.368V34.1364C211.368 35.9736 212.417 36.8923 214.189 36.8923C214.583 36.8923 215.042 36.8267 215.567 36.6954V35.2519C215.042 35.3831 214.714 35.3831 214.517 35.3831Z" fill="#010202"/>
<path d="M221.013 28.6247C220.094 28.6247 219.373 28.9528 218.782 29.6089V24.6221H217.142V36.7612H218.782V32.0368C218.782 30.9213 219.504 30.1995 220.554 30.1995C221.538 30.1995 222.194 30.9213 222.194 32.0368V36.7612H223.835V31.7743C223.835 29.937 222.785 28.6247 221.013 28.6247Z" fill="#010202"/>
<path d="M233.152 32.2993C233.152 31.2494 232.824 30.3964 232.168 29.6746C231.512 28.9528 230.659 28.6248 229.675 28.6248C228.559 28.6248 227.64 29.0185 226.853 29.8715C226.066 30.6589 225.738 31.6431 225.738 32.8242C225.738 34.0053 226.131 34.9896 226.919 35.777C227.706 36.5644 228.69 36.9581 229.871 36.9581C231.053 36.9581 232.037 36.5644 232.89 35.6458L232.102 34.4647C231.446 35.1208 230.659 35.3833 229.871 35.3833C228.559 35.3833 227.575 34.5959 227.378 33.2836H233.087C233.087 32.9555 233.152 32.6274 233.152 32.2993ZM229.543 30.0683C230.659 30.0683 231.512 30.8557 231.512 32.0368H227.378C227.575 30.8557 228.428 30.0683 229.543 30.0683Z" fill="#010202"/>
<path d="M127.378 65.3043L118.848 44.8975H117.798L109.333 65.3043H112.614L113.992 61.9578H122.653L124.031 65.3043H127.378ZM115.108 59.2019L118.323 50.8686L121.472 59.2019H115.108Z" fill="#010202"/>
<path d="M137.483 50.0159C135.383 50.0159 133.546 50.9345 132.496 52.5093V50.4096H129.609V70.8164H132.693V63.5329C133.808 64.9765 135.449 65.6327 137.483 65.6327C139.517 65.6327 141.223 64.9109 142.535 63.4017C143.848 61.8925 144.504 60.0552 144.504 57.8243C144.504 55.5933 143.848 53.756 142.535 52.2468C141.223 50.7376 139.517 50.0159 137.483 50.0159ZM136.958 62.6799C135.777 62.6799 134.727 62.2862 133.874 61.4332C133.021 60.5802 132.627 59.3991 132.627 57.7587C132.627 54.5434 134.596 52.903 136.958 52.903C138.205 52.903 139.255 53.3623 140.108 54.281C140.961 55.1996 141.354 56.3807 141.354 57.8243C141.354 59.2678 140.961 60.3833 140.108 61.302C139.255 62.2206 138.205 62.6799 136.958 62.6799Z" fill="#010202"/>
<path d="M155.265 50.0159C153.165 50.0159 151.328 50.9345 150.278 52.5093V50.4096H147.391V70.8164H150.475V63.5329C151.591 64.9765 153.231 65.6327 155.265 65.6327C157.299 65.6327 159.005 64.9109 160.318 63.4017C161.63 61.8925 162.286 60.0552 162.286 57.8243C162.286 55.5933 161.63 53.756 160.318 52.2468C159.005 50.7376 157.299 50.0159 155.265 50.0159ZM154.806 62.6799C153.625 62.6799 152.575 62.2862 151.722 61.4332C150.869 60.5802 150.475 59.3991 150.475 57.7587C150.475 54.5434 152.444 52.903 154.806 52.903C156.053 52.903 157.102 53.3623 157.955 54.281C158.808 55.1996 159.202 56.3807 159.202 57.8243C159.202 59.2678 158.808 60.3833 157.955 61.302C157.037 62.2206 156.053 62.6799 154.806 62.6799Z" fill="#010202"/>
<path d="M178.887 44.8975C177.181 44.8975 175.738 45.4224 174.557 46.4066C173.375 47.3909 172.785 48.7032 172.785 50.3437C172.785 52.9027 174.425 54.5431 177.247 55.9211L179.347 56.9709C181.381 57.9552 182.168 58.5458 182.168 59.9893C182.168 61.6954 180.856 62.8108 178.822 62.8108C176.853 62.8108 175.213 61.761 173.769 59.5956L171.604 61.3017C173.113 63.9919 175.738 65.6324 178.887 65.6324C180.724 65.6324 182.299 65.1074 183.48 64.0576C184.727 63.0077 185.318 61.5641 185.318 59.8581C185.318 57.2334 183.808 55.6586 180.724 54.1494L178.559 53.0996C176.591 52.1153 175.869 51.5904 175.869 50.2124C175.869 48.6376 177.181 47.7846 178.756 47.7846C180.396 47.7846 181.774 48.6376 182.824 50.2124L184.99 48.5064C183.874 46.341 181.578 44.8975 178.887 44.8975Z" fill="#010202"/>
<path d="M195.029 62.7456C193.192 62.7456 192.207 62.0894 192.207 60.1865V53.0999H196.473V50.344H192.207V46.407H189.123V50.344H186.761V53.0999H189.123V60.3834C189.123 63.8611 191.092 65.5671 194.373 65.5671C195.095 65.5671 195.948 65.4359 196.932 65.239V62.5487C196.079 62.6799 195.488 62.7456 195.029 62.7456Z" fill="#010202"/>
<path d="M205.79 50.0159C203.69 50.0159 201.853 50.8033 200.409 52.2468C198.966 53.756 198.244 55.5933 198.244 57.7587C198.244 59.924 198.966 61.8269 200.409 63.2705C201.853 64.7796 203.625 65.5014 205.79 65.567C207.89 65.567 209.661 64.7797 211.171 63.3361C212.68 61.8269 213.402 59.9896 213.402 57.7587C213.402 55.5933 212.614 53.6904 211.171 52.2468C209.727 50.8033 207.89 50.0159 205.79 50.0159ZM205.856 52.9686C207.102 52.9686 208.152 53.4279 209.005 54.4122C209.858 55.3308 210.318 56.4463 210.318 57.8899C210.318 59.2678 209.858 60.3833 209.005 61.3676C208.152 62.2862 207.102 62.7455 205.856 62.7455C204.543 62.7455 203.493 62.2862 202.706 61.3676C201.853 60.4489 201.459 59.2678 201.459 57.8899C201.459 56.5119 201.853 55.3308 202.706 54.4122C203.493 53.4279 204.543 52.9686 205.856 52.9686Z" fill="#010202"/>
<path d="M223.375 50.2126C221.604 50.2126 220.226 50.9344 219.176 52.3124V50.3439H216.289V65.2389H219.373V57.2993C219.373 54.6746 221.144 53.1654 223.572 53.1654H224.491V50.3439C224.228 50.2783 223.835 50.2126 223.375 50.2126Z" fill="#010202"/>
<path d="M239.583 56.8397C239.583 54.8712 238.927 53.2308 237.68 51.9185C236.433 50.6061 234.858 49.95 232.956 49.95C230.856 49.95 229.084 50.7374 227.706 52.2465C226.263 53.7557 225.606 55.593 225.606 57.7584C225.606 59.9893 226.328 61.8266 227.772 63.3358C229.215 64.845 231.053 65.5668 233.284 65.5668C235.449 65.5668 237.352 64.7794 238.992 63.1389L237.549 60.9736C236.236 62.1547 234.858 62.7452 233.349 62.7452C230.856 62.7452 229.084 61.3017 228.69 58.8082H239.386C239.452 58.1521 239.583 57.4959 239.583 56.8397ZM232.824 52.7059C234.924 52.7059 236.499 54.1494 236.499 56.3804H228.69C229.15 54.1494 230.79 52.7059 232.824 52.7059Z" fill="#010202"/>
<path d="M95.0947 46.6692C95.029 40.9605 100.082 38.2046 100.278 38.0734C97.4569 34.202 92.9949 33.6771 91.4857 33.6114C87.8112 33.2177 84.2023 35.7112 82.2994 35.7112C80.3965 35.7112 77.4437 33.6771 74.3598 33.7427C70.3571 33.8083 66.5514 35.9736 64.5172 39.3857C60.2521 46.2755 63.4017 56.4461 67.5356 62.0235C69.5697 64.7794 71.9319 67.7978 75.0815 67.7322C78.1655 67.6009 79.281 65.8949 82.9556 65.8949C86.6301 65.8949 87.68 67.7322 90.8952 67.6666C94.176 67.6009 96.2758 64.9107 98.2443 62.1547C100.606 59.0051 101.525 55.9212 101.591 55.7899C101.459 55.7243 95.1603 53.4933 95.0947 46.6692ZM89.0579 30.0025C90.6983 28.0996 91.8138 25.475 91.4857 22.7847C89.1235 22.8503 86.1052 24.2939 84.3991 26.1967C82.8899 27.8372 81.512 30.5931 81.9057 33.1521C84.596 33.349 87.3519 31.8398 89.0579 30.0025Z" fill="#010202"/>
</svg>
