<svg width="302" height="96" viewBox="0 0 302 96" fill="none" xmlns="http://www.w3.org/2000/svg">
<path d="M47.9816 1H254.018C280.003 1 301 22.0623 301 47.98C301 73.9633 279.937 94.96 254.018 94.96H47.9816C21.9974 94.96 1 73.8977 1 47.98C1 21.9966 22.063 1 47.9816 1Z" fill="white"/>
<path d="M47.9819 1.85303H254.019C279.478 1.85303 300.082 22.456 300.082 47.9144C300.082 73.3729 279.478 93.9758 254.019 93.9758H47.9819C22.5226 93.9758 1.91895 73.3729 1.91895 47.9144C1.91895 22.5216 22.5226 1.85303 47.9819 1.85303Z" stroke="#010202" stroke-opacity="0.25" stroke-width="2.7543"/>
<path d="M77.9687 46.9957L55.5934 26.0647C55.3966 26.5896 55.1997 27.1145 55.1997 27.8363V66.352C55.1997 67.0738 55.3966 67.5987 55.5934 68.1236L77.9687 46.9957Z" fill="#010202"/>
<path d="M80.5938 46.9957L88.0741 53.9508L96.2762 49.6202C98.9008 48.2423 98.9008 45.9458 96.2762 44.5679L87.8772 40.0405L80.5938 46.9957Z" fill="#010202"/>
<path d="M79.2806 45.749L86.1704 39.122L59.858 25.2117C58.7425 24.6868 57.6271 24.4899 56.9053 24.8836L79.2806 45.749Z" fill="#010202"/>
<path d="M79.2806 48.177L56.9053 69.2393C57.6271 69.5673 58.7425 69.4361 60.0549 68.9112L86.4984 55.0009L79.2806 48.177Z" fill="#010202"/>
<path d="M114.845 27.5083C113.336 27.5083 112.024 28.0332 110.974 29.083C109.924 30.1329 109.399 31.4452 109.399 33.0199C109.399 34.5947 109.924 35.907 110.974 36.9568C112.024 38.0066 113.336 38.5315 114.845 38.5315C116.945 38.5315 118.717 37.4161 119.635 35.7101V32.6918H114.78V34.201H117.929V35.382C117.207 36.4975 116.223 37.0224 114.845 37.0224C113.73 37.0224 112.811 36.6287 112.089 35.907C111.367 35.1196 111.039 34.201 111.039 33.0199C111.039 31.9045 111.367 30.9203 112.089 30.1985C112.745 29.4767 113.664 29.083 114.78 29.083C116.092 29.083 117.076 29.6736 117.863 30.789L119.045 29.7392C118.126 28.2957 116.682 27.5083 114.845 27.5083Z" fill="#010202"/>
<path d="M121.735 27.7051V38.4003H128.69V36.8911H123.375V33.4792H127.247V31.97H123.375V29.2142H128.493V27.7051H121.735Z" fill="#010202"/>
<path d="M129.543 27.7051V29.2142H133.021V38.4003H134.662V29.2142H138.139V27.7051H129.543Z" fill="#010202"/>
<path d="M143.323 27.7051V38.4003H144.963V27.7051H143.323Z" fill="#010202"/>
<path d="M146.538 27.7051V29.2142H150.016V38.4003H151.656V29.2142H155.134V27.7051H146.538Z" fill="#010202"/>
<path d="M165.042 27.5083C163.533 27.5083 162.221 28.0332 161.171 29.083C160.121 30.1329 159.596 31.4452 159.596 33.0199C159.596 34.5947 160.121 35.907 161.171 36.9568C162.221 38.0066 163.468 38.5315 165.042 38.5315C166.552 38.5315 167.798 38.0066 168.848 36.9568C169.898 35.907 170.423 34.5947 170.423 33.0199C170.423 31.4452 169.898 30.1329 168.848 29.083C167.864 28.0332 166.552 27.5083 165.042 27.5083ZM165.042 29.083C166.092 29.083 167.011 29.4767 167.667 30.1985C168.389 30.9203 168.717 31.9045 168.717 33.0199C168.717 34.201 168.389 35.1196 167.667 35.8413C166.945 36.5631 166.092 36.9568 165.042 36.9568C163.993 36.9568 163.074 36.5631 162.418 35.8413C161.696 35.054 161.368 34.1354 161.368 33.0199C161.368 31.9045 161.696 30.9203 162.418 30.1985C163.139 29.4767 163.993 29.083 165.042 29.083Z" fill="#010202"/>
<path d="M179.281 34.9227L173.048 27.5083H172.457V38.4003H174.097V31.1827L180.397 38.5972H180.987V27.7051H179.347V34.9227H179.281Z" fill="#010202"/>
<path d="M118.913 46.3396C116.223 46.3396 113.992 47.2582 112.155 49.161C110.318 50.9982 109.399 53.2948 109.399 56.0506C109.399 58.8064 110.318 61.1029 112.155 62.9401C113.992 64.7773 116.223 65.6959 118.913 65.6959C122.522 65.6959 125.738 63.7274 127.312 60.7748V55.5256H118.848V58.2158H124.425V60.2499C123.178 62.1527 121.407 63.0713 119.045 63.0713C117.076 63.0713 115.501 62.4152 114.255 61.1029C113.008 59.7906 112.417 58.0846 112.417 56.0506C112.417 54.0821 113.008 52.4418 114.189 51.1295C115.37 49.8172 116.945 49.161 118.848 49.161C121.079 49.161 122.916 50.1453 124.228 52.1137L126.328 50.3421C124.622 47.6519 122.129 46.3396 118.913 46.3396Z" fill="#010202"/>
<path d="M135.58 51.1296C133.612 51.1296 131.906 51.8514 130.528 53.2293C129.15 54.6072 128.494 56.3788 128.494 58.4129C128.494 60.4469 129.15 62.2185 130.528 63.5964C131.906 64.9743 133.546 65.6961 135.58 65.6961C137.549 65.6961 139.189 64.9743 140.633 63.5964C142.011 62.1529 142.732 60.4469 142.732 58.4129C142.732 56.3788 142.011 54.6072 140.633 53.2293C139.255 51.8514 137.549 51.1296 135.58 51.1296ZM135.646 53.8854C136.827 53.8854 137.811 54.3447 138.599 55.1977C139.386 56.0507 139.78 57.1006 139.78 58.4129C139.78 59.6595 139.386 60.775 138.599 61.628C137.811 62.481 136.827 62.8746 135.646 62.8746C134.465 62.8746 133.481 62.481 132.693 61.628C131.906 60.775 131.512 59.6595 131.512 58.4129C131.512 57.1006 131.906 56.0507 132.693 55.1977C133.415 54.2791 134.399 53.8854 135.646 53.8854Z" fill="#010202"/>
<path d="M150.869 51.1296C148.9 51.1296 147.194 51.8514 145.816 53.2293C144.438 54.6072 143.782 56.3788 143.782 58.4129C143.782 60.4469 144.438 62.2185 145.816 63.5964C147.194 64.9743 148.835 65.6961 150.869 65.6961C152.837 65.6961 154.478 64.9743 155.921 63.5964C157.299 62.1529 158.021 60.4469 158.021 58.4129C158.021 56.3788 157.299 54.6072 155.921 53.2293C154.543 51.8514 152.837 51.1296 150.869 51.1296ZM150.934 53.8854C152.116 53.8854 153.1 54.3447 153.887 55.1977C154.675 56.0507 155.068 57.1006 155.068 58.4129C155.068 59.6595 154.675 60.775 153.887 61.628C153.1 62.481 152.116 62.8746 150.934 62.8746C149.753 62.8746 148.769 62.481 147.982 61.628C147.194 60.775 146.801 59.6595 146.801 58.4129C146.801 57.1006 147.194 56.0507 147.982 55.1977C148.703 54.2791 149.688 53.8854 150.934 53.8854Z" fill="#010202"/>
<path d="M170.489 53.4261C169.439 51.917 167.864 51.1296 165.764 51.1296C163.861 51.1296 162.352 51.7858 161.105 53.0981C159.859 54.4104 159.268 56.0507 159.268 58.1504C159.268 60.1844 159.924 61.8904 161.105 63.2027C162.352 64.515 163.861 65.1711 165.764 65.1711C167.733 65.1711 169.176 64.515 170.292 63.2027V64.1869C170.292 66.8115 168.717 68.1894 166.289 68.1894C164.714 68.1894 163.139 67.5333 161.565 66.221L159.99 68.3206C161.762 70.0922 163.927 70.9452 166.42 70.9452C170.489 70.9452 173.113 68.4519 173.113 64.0557V51.5889H170.489V53.4261ZM166.223 62.4809C165.042 62.4809 164.124 62.0873 163.271 61.2999C162.483 60.4469 162.09 59.3971 162.09 58.1504C162.09 56.9037 162.483 55.8539 163.271 55.0009C164.058 54.2135 165.042 53.8198 166.223 53.8198C168.454 53.8198 170.292 55.2634 170.292 58.0848C170.292 59.5283 169.898 60.5781 169.111 61.3655C168.258 62.0873 167.339 62.4809 166.223 62.4809Z" fill="#010202"/>
<path d="M175.869 44.1089V65.368H178.756V44.1089H175.869Z" fill="#010202"/>
<path d="M193.848 57.4942C193.848 55.657 193.257 54.1478 192.076 52.9012C190.895 51.6545 189.451 51.064 187.68 51.064C185.711 51.064 184.071 51.7857 182.759 53.1636C181.446 54.5415 180.79 56.3131 180.79 58.3472C180.79 60.4468 181.446 62.1528 182.824 63.5307C184.202 64.9086 185.908 65.6304 188.008 65.6304C190.042 65.6304 191.814 64.9086 193.388 63.3995L192.011 61.3655C190.829 62.4809 189.517 63.0058 188.074 63.0058C185.777 63.0058 184.071 61.6279 183.677 59.3314H193.651C193.782 58.7409 193.848 58.0847 193.848 57.4942ZM187.549 53.6885C189.517 53.6885 190.961 55.0008 190.961 57.1005H183.677C184.136 55.0008 185.646 53.6885 187.549 53.6885Z" fill="#010202"/>
<path d="M202.247 46.668V65.3681H205.134V58.1505H208.809C210.646 58.1505 212.09 57.6256 213.271 56.5758C214.386 55.5259 214.977 54.0824 214.977 52.3764C214.977 50.6705 214.386 49.2926 213.271 48.2427C212.155 47.1929 210.646 46.668 208.809 46.668H202.247ZM208.809 49.2925C210.843 49.2925 212.024 50.5392 212.024 52.3764C212.024 54.2136 210.843 55.4603 208.809 55.4603H205.2V49.2925H208.809Z" fill="#010202"/>
<path d="M216.617 44.1089V65.368H219.504V44.1089H216.617Z" fill="#010202"/>
<path d="M227.444 51.1296C225.016 51.1296 223.113 52.1139 221.801 54.0823L223.442 55.8539C224.557 54.476 225.804 53.7542 227.182 53.7542C229.019 53.7542 230.069 54.8041 230.069 56.7069V57.6255H226.263C223.245 57.6255 221.342 59.2002 221.342 61.628C221.342 64.0557 223.179 65.6305 226.001 65.6305C227.838 65.6305 229.281 64.9743 230.266 63.7276V65.3024H232.956V56.9037C232.956 53.2293 230.791 51.1296 227.444 51.1296ZM226.591 63.3995C225.213 63.3995 224.229 62.7434 224.229 61.5623C224.229 60.4469 225.016 59.8564 226.591 59.8564H230.003V60.1188C230.069 62.0216 228.494 63.3995 226.591 63.3995Z" fill="#010202"/>
<path d="M240.96 61.628L237.089 51.4578H234.005L239.385 64.7775L238.861 66.0898C238.204 67.6645 237.286 68.1238 235.908 68.1238C235.711 68.1238 235.186 68.1238 234.333 67.9926V70.486C235.055 70.6828 235.842 70.7484 236.564 70.7484C238.861 70.7484 240.37 69.5674 241.485 66.9428L248.047 51.4578H244.963L240.96 61.628Z" fill="#010202"/>
</svg>
